<svg width="80" height="80" viewBox="0 0 80 80" fill="none" xmlns="http://www.w3.org/2000/svg">
<path opacity="0.3" d="M80 40C80 62.0914 62.0914 80 40 80C17.9086 80 0 62.0914 0 40C0 17.9086 17.9086 0 40 0C62.0914 0 80 17.9086 80 40ZM10.9071 40C10.9071 56.0675 23.9325 69.0929 40 69.0929C56.0675 69.0929 69.0929 56.0675 69.0929 40C69.0929 23.9325 56.0675 10.9071 40 10.9071C23.9325 10.9071 10.9071 23.9325 10.9071 40Z" fill="#2F2E30"/>
<circle cx="40" cy="40" r="29" fill="#181818"/>
<path d="M39.983 22.5874C41.0046 22.5874 42.004 22.7366 42.7574 23.0181L51.0748 26.1353H51.0758C53.2953 26.962 55.0504 29.5076 55.0504 31.8667V44.2495C55.0504 45.3367 54.7062 46.5895 54.1237 47.7485C53.5777 48.8348 52.8403 49.8024 52.0309 50.4556L51.8678 50.5825L44.7008 55.9321L44.6949 55.937C43.4122 56.9261 41.7236 57.4331 39.9996 57.4331C38.2769 57.433 36.5846 56.9263 35.2643 55.9478H35.2633L28.0992 50.5991C27.2265 49.9484 26.4252 48.9208 25.8424 47.7593C25.2596 46.5976 24.9166 45.3447 24.9166 44.2661V31.8667C24.9166 29.5075 26.6716 26.9619 28.8912 26.1353H28.8922L37.2086 23.0181C37.962 22.7365 38.9614 22.5874 39.983 22.5874ZM40.0006 24.0854C39.202 24.0876 38.3751 24.1949 37.7418 24.4312L37.7408 24.4321L29.4244 27.5483H29.4235C28.596 27.8599 27.8547 28.5225 27.3239 29.2905C26.7928 30.0589 26.4332 30.9898 26.4332 31.8833V44.2661C26.4332 45.1606 26.7438 46.1893 27.2008 47.1011C27.6577 48.0126 28.293 48.8726 29.0006 49.4009L36.1676 54.7505C37.2294 55.5444 38.628 55.9252 40.0016 55.9253C41.3755 55.9253 42.7778 55.5442 43.8473 54.7515L43.8492 54.7505L51.0153 49.4009L51.0162 49.3999C51.731 48.8638 52.3666 48.0049 52.8219 47.0942C53.2772 46.1836 53.5836 45.1596 53.5836 44.2661V31.8667C53.5836 30.9807 53.2232 30.0539 52.693 29.2866C52.1625 28.5191 51.422 27.8539 50.5973 27.5337L50.5924 27.5317L42.275 24.4146L42.2662 24.4116C41.6281 24.1864 40.8 24.0833 40.0006 24.0854Z" fill="#FAFAFA" stroke="#FAFAFA"/>
<path d="M44.4039 34.77C44.692 34.4822 45.1755 34.482 45.4635 34.77C45.7514 35.058 45.7513 35.5415 45.4635 35.8296L38.2965 42.9966C38.1452 43.1478 37.9574 43.2163 37.7662 43.2163C37.5752 43.2162 37.3881 43.1477 37.2369 42.9966L34.5533 40.313C34.2655 40.0249 34.2654 39.5414 34.5533 39.2534C34.8414 38.9654 35.3248 38.9655 35.6129 39.2534L37.7662 41.4067L38.1207 41.0532L44.4039 34.77Z" fill="#FAFAFA" stroke="#FAFAFA"/>
</svg>
